<?xml version="1.0" encoding="utf-8"?>
<!-- Generator: Adobe Illustrator 18.0.0, SVG Export Plug-In . SVG Version: 6.00 Build 0)  -->
<!DOCTYPE svg PUBLIC "-//W3C//DTD SVG 1.1//EN" "http://www.w3.org/Graphics/SVG/1.1/DTD/svg11.dtd">
<svg version="1.1" id="Layer_1" xmlns="http://www.w3.org/2000/svg" xmlns:xlink="http://www.w3.org/1999/xlink" x="0px" y="0px"
	 viewBox="0 0 274 48" enable-background="new 0 0 274 48" xml:space="preserve">
<g>
	<g>
		<path fill-rule="evenodd" clip-rule="evenodd" fill="#232323" d="M73,25.2L73,25.2L73,25.2L73,25.2C73,25.2,73,25.2,73,25.2z
			 M75.9,23.6L75.9,23.6c-0.3-0.2-0.6-0.4-1.1-0.4c-0.1,0-0.2,0-0.3,0h0c-0.3,0-0.5,0.1-0.8,0.1c-0.1,0-0.2,0.1-0.3,0.2
			c-0.1,0.2-0.3,0.4-0.3,0.5v0c0,0,0,0.1,0,0.1l0,0.4c0,0.2,0,0.5,0,0.8c0.1,0,0.2,0.1,0.4,0.1c0.2,0,0.4,0.1,0.6,0.1
			c0,0,0.1,0,0.1,0c0.4,0,0.7,0,1-0.2l0,0c0.3-0.2,0.5-0.4,0.6-0.6c0-0.1,0-0.1,0.1-0.2c0-0.1,0.1-0.2,0.1-0.2l0-0.1
			c0,0,0-0.1,0-0.1l0-0.1V24C76.1,23.9,76,23.7,75.9,23.6z M92.1,23.1L92.1,23.1c-0.3,0-0.5,0.1-0.8,0.1v0c-0.1,0-0.2,0.1-0.3,0.2
			l0,0c-0.1,0.2-0.3,0.3-0.3,0.5l0,0.1c0,0,0,0.1,0,0.1v0.3c0,0.3,0,0.6,0.1,0.9c0.1,0,0.2,0,0.4,0.1c0.2,0,0.4,0.1,0.6,0.1h0
			c0.4,0,0.8,0,1.1-0.2c0.2-0.2,0.4-0.4,0.6-0.6c0.1-0.1,0.1-0.3,0.2-0.4c0-0.1,0.1-0.2,0.1-0.2l0-0.1v0c0-0.1-0.1-0.2-0.2-0.4
			l0-0.1c-0.2-0.2-0.6-0.3-1.1-0.4C92.2,23.1,92.2,23.1,92.1,23.1z M26.2,23.5c-0.1,0-0.2,0-0.3,0h0c-0.3,0-0.5,0.1-0.7,0.1
			c-0.1,0-0.2,0.1-0.3,0.2l0,0c-0.1,0.1-0.1,0.2-0.2,0.3l0,0c0,0.1-0.1,0.1-0.1,0.2l0,0.1c0,0,0,0.1,0,0.1l0,0.3
			c0,0.3,0,0.6,0.1,0.9c0.1,0,0.2,0,0.4,0.1c0,0,0,0,0,0c0.2,0,0.3,0.1,0.5,0.1c0,0,0,0,0,0h0.1c0.4,0,0.7,0,1-0.1
			c0.3-0.2,0.5-0.4,0.6-0.7c0.1-0.1,0.1-0.3,0.2-0.4v0c0-0.1,0-0.1,0-0.2l0-0.2v0c0-0.1-0.1-0.2-0.2-0.4l0-0.1
			C27.1,23.7,26.7,23.6,26.2,23.5z M12.9,12.7c-0.5-0.1-0.9-0.2-1.4-0.2l1.1,3.1c0.2-0.1,0.3-0.2,0.5-0.3c0.6-0.4,1-0.7,1.3-1.1l0,0
			c0.2-0.2,0.2-0.4,0.2-0.6c-0.3-0.3-0.8-0.6-1.5-0.8h0L12.9,12.7z M76,1.5L75.5,11l-9.2,0.1l-0.1,2.2h0l-0.2,5.5
			c1.7-2.3,4.5-3.3,8.4-3.2h0.2c3.2,0.4,5.4,1.5,6.8,3.1h0c0.3,0.3,0.6,0.7,0.8,1.1v0c0.1,0.2,0.2,0.4,0.3,0.5c0.3-0.5,0.6-1,1-1.5
			c1.7-2.3,4.5-3.4,8.5-3.3h0.1c2.9,0.4,5.1,1.3,6.4,2.7v-4l7.7,0.1l0.5,0.6c0.4,0.4,0.7,0.8,1.1,1.2c0,0,0,0,0,0
			c0.4,0.5,0.8,0.9,1.2,1.4h0c0.4,0.5,0.7,0.9,1.1,1.4h0c0.3,0.3,0.5,0.7,0.8,1l-0.2-5l6.5-0.2l2.1,22.5l-8.7-0.4l-4.1-5.5
			c-0.2,1.4-0.4,2.7-0.6,3.7l-0.2,1.6l-7.2-0.5l0-4.1c-0.7,1-1.6,1.9-2.7,2.7h0c-1.7,1.3-4,1.8-7,1.5h-0.1c-4.2-0.8-6.7-2.4-7.2-4.9
			c-0.8,1.3-1.9,2.4-3.3,3.4h0c-1.7,1.3-4,1.8-6.9,1.5h-0.1c-2.7-0.5-4.7-1.4-5.9-2.6l-0.1,3.3l-10.9-0.4l0.1-1L48,35.9l-2.9-4.2
			l-1.6,4.9l-7.3,0.9l-2.2-7.6c-0.1,0.3-0.2,0.6-0.4,0.9l0,0c-0.8,1.7-2.1,3.2-3.8,4.5h0c-1.7,1.3-4,1.8-7,1.5h-0.1
			c-1.8-0.3-3.3-0.8-4.4-1.5l0,0.1l-9.6,2.4l-7-35.7l1.8-0.2c1.1-0.1,2.4-0.3,3.9-0.5C17,0,23.2,2.3,25.7,8.2l0.1,0.2l0,0.2
			c0.1,0.3,0.1,0.6,0.2,0.9c0.2,2.3-0.1,4.5-1.1,6.5c0.3,0,0.6,0,0.9,0h0.1c1.6,0.2,3,0.6,4.2,1.2l-2-6.7l7.4-0.6L36,11
			c1.1,2.4,2.2,5.2,3.2,8.6l3.9-6.8l1.5,2.2c0.6,0.9,1.5,2.2,2.7,3.8c0.1,0.2,0.2,0.3,0.3,0.5c0.2,0.2,0.3,0.4,0.5,0.7
			c0.1-0.2,0.1-0.4,0.2-0.6v0c0.1-0.3,0.2-0.5,0.3-0.8c0,0,0,0,0,0c0.6-1.9,1.1-3.7,1.6-5.2l0.4-1.4l6.2,0.7l0.2-1.6l-6.8-0.6
			l-0.5-8.1L76,1.5z"/>
		<path fill-rule="evenodd" clip-rule="evenodd" fill="#2F80C3" d="M76.1,26c0.5-0.4,0.9-0.8,1.2-1.3c0-0.1,0.1-0.1,0.1-0.2
			c0.1-0.1,0.1-0.3,0.2-0.4c0.1-0.2,0.1-0.4,0.1-0.6c0.1-0.5,0-1-0.4-1.6l0-0.2l-0.1,0c-0.4-0.5-1.2-0.8-2.3-0.9c-0.2,0-0.3,0-0.5,0
			c-0.5,0-0.9,0.1-1.3,0.2c-0.4,0.1-0.7,0.4-0.9,0.6c-0.3,0.4-0.5,0.7-0.7,1.1c-0.1,0.3-0.1,0.5-0.1,0.8c-0.1,0.5,0,1.1,0.2,1.7
			c0,0,0,0,0,0.1c0,0.1,0.1,0.1,0.1,0.2c0.2,0.3,0.7,0.6,1.4,0.8c0.2,0.1,0.5,0.1,0.8,0.2c0.1,0,0.1,0,0.2,0
			C74.9,26.4,75.6,26.3,76.1,26z M94.9,24.7c0.1-0.2,0.2-0.4,0.3-0.6c0.1-0.2,0.1-0.4,0.1-0.6c0.1-0.5,0-1-0.4-1.6c0,0,0,0,0,0
			c0-0.1-0.1-0.1-0.1-0.2c-0.4-0.5-1.2-0.8-2.3-0.9c-0.2,0-0.3,0-0.5,0c-0.5,0-0.9,0.1-1.3,0.2c-0.4,0.1-0.7,0.4-0.9,0.6
			c-0.3,0.4-0.5,0.7-0.7,1.1c0,0,0,0,0,0.1C89,22.9,89,23.2,89,23.4c-0.1,0.5,0,1.1,0.2,1.7c0,0,0,0,0,0.1c0.2,0.4,0.7,0.8,1.5,1
			c0.2,0.1,0.5,0.1,0.8,0.2c0.1,0,0.1,0,0.2,0c0.8,0,1.5-0.1,2-0.4C94.3,25.6,94.7,25.2,94.9,24.7z M112.5,16.3l3.3-0.1l1.7,18.2
			l-6-0.3l-5.9-7.8c-0.5,3.1-0.9,5.5-1.2,7.4l-4.1-0.3l0-17.7l5.3,0.1c0.4,0.4,0.7,0.8,1.1,1.2c0.4,0.5,0.8,0.9,1.2,1.4
			c0.4,0.4,0.8,0.9,1.1,1.3c1.4,1.7,2.6,3.1,3.5,4.4c0.1,0.2,0.3,0.4,0.4,0.5L112.5,16.3z M84.7,19.4c1.5-1.8,3.9-2.7,7.2-2.5
			c2.7,0.4,4.6,1.2,5.8,2.5c0.2,0.2,0.4,0.5,0.6,0.8c0.2,0.3,0.3,0.6,0.4,0.8c0,0.1,0.1,0.2,0.1,0.3c0.3,0.7,0.5,1.4,0.6,2.1
			c0.1,0.6,0,1.1-0.1,1.7c-0.1,1-0.5,2.2-1.2,3.6c-0.7,1.4-1.8,2.7-3.3,3.7c-1.4,1-3.4,1.4-5.8,1.1c-3.4-0.6-5.4-1.8-6-3.6
			c-0.4-1.2-0.6-2.3-0.6-3.4c0-0.6,0-1.1,0.1-1.6c0-0.3,0-0.7,0.1-1c0,0,0-0.1,0-0.1c0.1-0.6,0.3-1.2,0.5-1.8
			C83.5,21,84.1,20.2,84.7,19.4z M67.1,19.4c1.5-1.8,3.9-2.7,7.2-2.5c2.7,0.4,4.6,1.2,5.7,2.5c0.2,0.2,0.4,0.5,0.6,0.8
			c0.2,0.3,0.3,0.6,0.4,0.8c0.4,0.8,0.6,1.6,0.7,2.4c0,0.2,0,0.3,0,0.5c0,0.4,0,0.8-0.1,1.2c-0.1,1-0.5,2.2-1.2,3.6
			c-0.7,1.4-1.8,2.7-3.3,3.7c-1.4,1-3.4,1.4-5.8,1.1c-3.4-0.6-5.4-1.8-6-3.6c-0.4-1.2-0.6-2.3-0.6-3.4c0-0.6,0-1.1,0.1-1.6
			c0-0.3,0-0.7,0.1-1c0.1-0.6,0.3-1.3,0.5-1.9C65.9,21,66.5,20.2,67.1,19.4z M64.7,9.1l-0.1,2.1h0l-1,22.8l-7.4-0.3l2.3-20.6h0.1
			l0.2-1.9h0l0-0.3h0L58.9,9l-7.6-0.6L51,3.8l23.4-0.6L74.1,9L64.7,9.1z"/>
		<path fill-rule="evenodd" clip-rule="evenodd" fill="#E94B3D" d="M13.3,10.6c-1.4-0.3-2.7-0.4-4.2-0.2l2.7,7
			c0.6-0.3,1.3-0.8,2.2-1.3c0.8-0.5,1.3-0.9,1.7-1.4c0.5-0.7,0.7-1.4,0.5-2.2C15.8,11.6,14.8,10.9,13.3,10.6L13.3,10.6z M30.4,11.7
			l4.1-0.3c1.2,2.5,2.4,5.5,3.6,9.2c0,0,0,0,0,0.1c0.2,0.5,0.3,1.1,0.5,1.7c0.1,0.2,0.1,0.4,0.2,0.6l4.5-7.5
			c0.6,0.9,1.5,2.2,2.7,3.7c0.1,0.2,0.2,0.3,0.4,0.5c0.3,0.4,0.6,0.8,0.9,1.2c0.5,0.6,1,1.3,1.5,2c0.3-0.8,0.5-1.6,0.8-2.4
			c0.1-0.4,0.3-0.8,0.4-1.2c0.1-0.3,0.2-0.5,0.2-0.8c0.6-1.9,1.1-3.6,1.6-5.1l4.5,0.5c-0.2,1-0.4,2.2-0.6,3.6
			c-0.1,0.3-0.1,0.7-0.2,1.1c-0.1,0.3-0.1,0.6-0.2,0.9c-0.1,0.8-0.3,1.6-0.4,2.5c-0.6,3.1-1.2,6.8-2,11l-4.1,0.1l-4.3-6l-2.3,6.8
			l-4.9,0.6L30.4,11.7z M3.5,3.5C4.6,3.4,5.9,3.2,7.4,3c8.9-1.2,14.5,0.7,16.8,5.6c0.5,2.3-0.1,4.5-1.9,6.3
			c-2.7,2.8-5.6,5.1-8.6,6.8v0l0,0l2.5,11l-6.3,1.5L3.5,3.5z M31.5,19.7c0.2,0.2,0.4,0.5,0.6,0.8c0.2,0.3,0.3,0.6,0.4,0.8
			c0,0,0,0,0,0c0.4,0.8,0.6,1.6,0.7,2.4c0.1,0.6,0,1.1-0.1,1.7c-0.1,1-0.5,2.2-1.2,3.6c-0.7,1.4-1.8,2.7-3.3,3.7
			c-1.4,1-3.4,1.4-5.8,1.1c-3.5-0.6-5.4-1.8-6-3.6c-0.4-1.2-0.6-2.3-0.6-3.4c0-0.6,0-1.1,0.1-1.7c0-0.3,0-0.7,0.1-1
			c0-0.3,0.1-0.5,0.2-0.8c0.1-0.4,0.2-0.7,0.4-1.1c0.4-0.8,0.9-1.7,1.5-2.5c1.5-1.8,3.9-2.7,7.2-2.5C28.4,17.6,30.4,18.4,31.5,19.7z
			 M28.6,22c0,0-0.1-0.1-0.2-0.1c-0.4-0.4-1.1-0.7-2.1-0.8c-0.2,0-0.3,0-0.5,0c-0.5,0-0.9,0.1-1.3,0.2c-0.4,0.1-0.7,0.4-0.9,0.6
			c-0.2,0.2-0.3,0.4-0.4,0.6C23.1,22.7,23,22.8,23,23c-0.1,0.3-0.1,0.5-0.1,0.8c-0.1,0.5,0,1.1,0.2,1.7c0,0,0,0.1,0,0.1
			c0.2,0.4,0.7,0.8,1.5,1c0.2,0.1,0.5,0.1,0.8,0.2c0.1,0,0.2,0,0.2,0c0.8,0,1.5-0.1,2-0.4c0.5-0.4,0.9-0.8,1.2-1.3
			c0.1-0.2,0.2-0.4,0.3-0.6c0.1-0.2,0.1-0.4,0.1-0.6c0.1-0.5,0-1-0.4-1.6C28.7,22.1,28.7,22.1,28.6,22z"/>
	</g>
	<rect x="132" y="6" fill="#232323" width="1" height="36"/>
	<text transform="matrix(1 0 0 1 145 21.9998)"><tspan x="0" y="0" fill="#322E2F" font-family="Tahoma" font-size="13">Brings  Awesomeness</tspan><tspan x="0" y="15" fill="#322E2F" font-family="Tahoma" font-size="13">to Your Presentations</tspan></text>
</g>
</svg>
